<svg xmlns="http://www.w3.org/2000/svg" width="512" height="512" viewBox="0 0 512 512" fill="none">
  <rect width="512" height="512" rx="96" fill="#0C2340"/>
  <g transform="translate(96, 80)" stroke="#00A878" stroke-width="24" stroke-linecap="round" stroke-linejoin="round" fill="none">
    <path d="M240 60c0-33.1-26.9-60-60-60S120 26.9 120 60c0 22.1 12 41.4 29.8 51.8"/>
    <path d="M80 180c-44.2 0-80-35.8-80-80s35.8-80 80-80c30.9 0 57.7 17.5 71.1 43.2"/>
    <path d="M120 260c-33.1 0-60-26.9-60-60s26.9-60 60-60c25.5 0 47.3 15.9 56 38.3"/>
    <path d="M200 310c-22.1 0-40-17.9-40-40s17.9-40 40-40c16.6 0 30.8 10.1 36.9 24.5"/>
    <line x1="40" y1="352" x2="320" y2="192"/>
  </g>
</svg>
