<svg xmlns="http://www.w3.org/2000/svg" viewBox="0 0 900 720" font-family="Inter, Helvetica, Arial, sans-serif" font-size="13">
<defs>
  <marker id="arrow" viewBox="0 0 10 7" refX="10" refY="3.5" markerWidth="8" markerHeight="6" orient="auto-start-auto">
    <path d="M 0 0 L 10 3.5 L 0 7 z" fill="#0C2340"/>
  </marker>
</defs>
<rect width="900" height="720" fill="#FFFFFF" rx="8"/>
<rect x="280" y="20" width="340" height="44" rx="6" fill="#0C2340" stroke="#081828" stroke-width="2"/>
<text x="450" y="47" text-anchor="middle" fill="#FFFFFF" font-weight="600" font-size="14">Skillnet Offshore Wind Academy — Knowledge Base</text>
<line x1="390" y1="64" x2="225" y2="100" stroke="#0C2340" stroke-width="1.5" marker-end="url(#arrow)"/>
<line x1="510" y1="64" x2="675" y2="100" stroke="#0C2340" stroke-width="1.5" marker-end="url(#arrow)"/>
<rect x="20" y="100" width="390" height="590" rx="8" fill="#F0FBF7" stroke="#00A878" stroke-width="2"/>
<text x="215" y="126" text-anchor="middle" fill="#00A878" font-weight="700" font-size="13">For the Skillnet team — operational audience</text>
<rect x="490" y="100" width="390" height="590" rx="8" fill="#EAF1FA" stroke="#4A90D9" stroke-width="2"/>
<text x="685" y="126" text-anchor="middle" fill="#4A90D9" font-weight="700" font-size="13">Technical documentation — engineering audience</text>
<rect x="60" y="135" width="330" height="40" rx="5" fill="#E6F4EF" stroke="#00A878" stroke-width="1.5"/>
<text x="225" y="160" text-anchor="middle" fill="#0C2340" font-weight="500">Admin User Guide</text>
<line x1="225" y1="175" x2="225" y2="185" stroke="#00A878" stroke-width="1.2"/>
<rect x="60" y="185" width="330" height="52" rx="5" fill="#E6F4EF" stroke="#00A878" stroke-width="1.5"/>
<text x="225" y="205" text-anchor="middle" fill="#0C2340" font-weight="500">Content-type guides</text>
<text x="225" y="223" text-anchor="middle" fill="#0C2340" font-size="11">(Careers · Courses · Events · News · Research)</text>
<line x1="225" y1="237" x2="225" y2="247" stroke="#00A878" stroke-width="1.2"/>
<rect x="60" y="239" width="330" height="40" rx="5" fill="#E6F4EF" stroke="#00A878" stroke-width="1.5"/>
<text x="225" y="264" text-anchor="middle" fill="#0C2340" font-weight="500">Publishing workflow &amp; version history</text>
<line x1="225" y1="279" x2="225" y2="289" stroke="#00A878" stroke-width="1.2"/>
<rect x="60" y="291" width="330" height="40" rx="5" fill="#E6F4EF" stroke="#00A878" stroke-width="1.5"/>
<text x="225" y="316" text-anchor="middle" fill="#0C2340" font-weight="500">User &amp; role management</text>
<line x1="225" y1="331" x2="225" y2="341" stroke="#00A878" stroke-width="1.2"/>
<rect x="60" y="343" width="330" height="40" rx="5" fill="#E6F4EF" stroke="#00A878" stroke-width="1.5"/>
<text x="225" y="368" text-anchor="middle" fill="#0C2340" font-weight="500">Media library &amp; asset management</text>
<line x1="225" y1="383" x2="225" y2="393" stroke="#00A878" stroke-width="1.2"/>
<rect x="60" y="395" width="330" height="40" rx="5" fill="#E6F4EF" stroke="#00A878" stroke-width="1.5"/>
<text x="225" y="420" text-anchor="middle" fill="#0C2340" font-weight="500">Registrations &amp; CSV export</text>
<line x1="225" y1="435" x2="225" y2="445" stroke="#00A878" stroke-width="1.2"/>
<rect x="60" y="447" width="330" height="40" rx="5" fill="#E6F4EF" stroke="#00A878" stroke-width="1.5"/>
<text x="225" y="472" text-anchor="middle" fill="#0C2340" font-weight="500">Diagnostic tool — reporting &amp; interpretation</text>
<line x1="225" y1="487" x2="225" y2="497" stroke="#00A878" stroke-width="1.2"/>
<rect x="60" y="499" width="330" height="40" rx="5" fill="#E6F4EF" stroke="#00A878" stroke-width="1.5"/>
<text x="225" y="524" text-anchor="middle" fill="#0C2340" font-weight="500">Training materials &amp; refresher guides</text>
<line x1="225" y1="539" x2="225" y2="549" stroke="#00A878" stroke-width="1.2"/>
<rect x="60" y="551" width="330" height="40" rx="5" fill="#E6F4EF" stroke="#00A878" stroke-width="1.5"/>
<text x="225" y="576" text-anchor="middle" fill="#0C2340" font-weight="500">Accessibility Diagnostic Notes</text>
<line x1="225" y1="591" x2="225" y2="601" stroke="#00A878" stroke-width="1.2"/>
<rect x="60" y="603" width="330" height="40" rx="5" fill="#E6F4EF" stroke="#00A878" stroke-width="1.5"/>
<text x="225" y="628" text-anchor="middle" fill="#0C2340" font-weight="500">Hosting &amp; Environmental Posture</text>
<rect x="510" y="135" width="330" height="40" rx="5" fill="#DCEBFA" stroke="#4A90D9" stroke-width="1.5"/>
<text x="675" y="160" text-anchor="middle" fill="#0C2340" font-weight="500">System Architecture</text>
<line x1="675" y1="175" x2="675" y2="190" stroke="#4A90D9" stroke-width="1.2"/>
<rect x="510" y="186" width="330" height="52" rx="5" fill="#DCEBFA" stroke="#4A90D9" stroke-width="1.5"/>
<text x="675" y="206" text-anchor="middle" fill="#0C2340" font-weight="500">API Reference</text>
<text x="675" y="224" text-anchor="middle" fill="#0C2340" font-size="11">(generated from OpenAPI)</text>
<line x1="675" y1="238" x2="675" y2="253" stroke="#4A90D9" stroke-width="1.2"/>
<rect x="510" y="243" width="330" height="52" rx="5" fill="#DCEBFA" stroke="#4A90D9" stroke-width="1.5"/>
<text x="675" y="263" text-anchor="middle" fill="#0C2340" font-weight="500">Database Schema</text>
<text x="675" y="281" text-anchor="middle" fill="#0C2340" font-size="11">(generated from Prisma)</text>
<line x1="675" y1="295" x2="675" y2="310" stroke="#4A90D9" stroke-width="1.2"/>
<rect x="510" y="306" width="330" height="40" rx="5" fill="#DCEBFA" stroke="#4A90D9" stroke-width="1.5"/>
<text x="675" y="331" text-anchor="middle" fill="#0C2340" font-weight="500">Deployment Guide</text>
<line x1="675" y1="346" x2="675" y2="361" stroke="#4A90D9" stroke-width="1.2"/>
<rect x="510" y="363" width="330" height="40" rx="5" fill="#DCEBFA" stroke="#4A90D9" stroke-width="1.5"/>
<text x="675" y="388" text-anchor="middle" fill="#0C2340" font-weight="500">Security Documentation</text>
<line x1="675" y1="403" x2="675" y2="418" stroke="#4A90D9" stroke-width="1.2"/>
<rect x="510" y="420" width="330" height="40" rx="5" fill="#DCEBFA" stroke="#4A90D9" stroke-width="1.5"/>
<text x="675" y="445" text-anchor="middle" fill="#0C2340" font-weight="500">Disaster Recovery Plan</text>
<line x1="675" y1="460" x2="675" y2="475" stroke="#4A90D9" stroke-width="1.2"/>
<rect x="510" y="477" width="330" height="40" rx="5" fill="#DCEBFA" stroke="#4A90D9" stroke-width="1.5"/>
<text x="675" y="502" text-anchor="middle" fill="#0C2340" font-weight="500">Architecture Decision Records</text>
<line x1="675" y1="517" x2="675" y2="532" stroke="#4A90D9" stroke-width="1.2" marker-end="url(#arrow)"/>
<rect x="510" y="534" width="330" height="40" rx="5" fill="#FFFFFF" stroke="#4A90D9" stroke-width="1.5" stroke-dasharray="6 3"/>
<text x="675" y="559" text-anchor="middle" fill="#0C2340" font-weight="500">ADR 0001: Internationalisation</text>
</svg>